<?xml version="1.0" encoding="UTF-8"?>
<svg id="Camada_1" data-name="Camada 1" xmlns="http://www.w3.org/2000/svg" viewBox="0 0 1190.55 841.89">
  <defs>
    <style>
      .cls-1 {
        fill: #fff;
      }

      .cls-2 {
        fill: none;
      }
    </style>
  </defs>
  <path class="cls-1" d="M628.55,419.31v-42l-1-1.01h-9.62l-.88.88c-2.01,4.9-4.02,9.81-6.04,14.71l-6.04,14.71-12.01-29.42-.82-.88h-9.68l-1,1.01v42l1,1.01h7.8l1.01-1.01v-22.44l9.3,22.57.82.88h7.23l.88-.88c1.47-3.73,3-7.47,4.59-11.22,1.59-3.75,3.14-7.49,4.65-11.22v22.32l1.01,1.01h7.8l1-1.01ZM574.29,378.82v-1.89l-.63-.63h-1.89l-.63.63-25.78,40.86v1.89l.63.63h1.89l.63-.63,25.77-40.86ZM524.85,386.49c1.57.67,2.94,1.58,4.12,2.74,1.17,1.15,2.1,2.51,2.77,4.09.67,1.57,1,3.24,1,5s-.33,3.43-1,5c-.67,1.57-1.59,2.93-2.77,4.09-1.17,1.15-2.55,2.06-4.12,2.73-1.57.67-3.24,1.01-5,1.01s-3.42-.34-4.97-1.01c-1.55-.67-2.91-1.58-4.09-2.73-1.17-1.15-2.1-2.51-2.77-4.09-.67-1.57-1-3.24-1-5s.33-3.43,1-5c.67-1.57,1.59-2.93,2.77-4.09,1.17-1.15,2.53-2.07,4.09-2.74,1.55-.67,3.21-1,4.97-1s3.43.33,5,1M511.05,377.47c-2.73,1.19-5.11,2.81-7.17,4.84-2.05,2.03-3.67,4.42-4.84,7.17-1.17,2.74-1.76,5.69-1.76,8.83s.59,6.09,1.76,8.83c1.17,2.74,2.79,5.13,4.84,7.17,2.05,2.03,4.44,3.65,7.17,4.84,2.73,1.19,5.66,1.79,8.8,1.79s6.09-.6,8.83-1.79c2.74-1.2,5.14-2.81,7.2-4.84,2.05-2.03,3.67-4.42,4.84-7.17,1.17-2.75,1.76-5.69,1.76-8.83s-.59-6.09-1.76-8.83c-1.17-2.75-2.79-5.14-4.84-7.17-2.05-2.03-4.45-3.65-7.2-4.84-2.75-1.19-5.69-1.79-8.83-1.79s-6.08.6-8.8,1.79"/>
  <rect class="cls-2" width="1190.55" height="841.89"/>
</svg>